<svg width="28" height="29" viewBox="0 0 28 29" fill="none" xmlns="http://www.w3.org/2000/svg">
<path fill-rule="evenodd" clip-rule="evenodd" d="M5.22273 18.379C6.75609 16.1651 9.47174 14.5 13.9999 14.5C18.5281 14.5 21.2438 16.1651 22.7772 18.379C24.2591 20.5187 24.4952 22.9711 24.4999 24.3281C24.5046 25.6927 23.4 26.5834 22.2676 26.5834H5.7323C4.59984 26.5834 3.49528 25.6927 3.50002 24.3281C3.50473 22.9711 3.74077 20.5187 5.22273 18.379Z" fill="#FF1C45"/>
<path fill-rule="evenodd" clip-rule="evenodd" d="M14.0001 12.0834C16.5774 12.0834 18.6667 9.9194 18.6667 7.25002C18.6667 4.58064 16.5774 2.41669 14.0001 2.41669C11.4227 2.41669 9.33339 4.58064 9.33339 7.25002C9.33339 9.9194 11.4227 12.0834 14.0001 12.0834Z" fill="#FF1C45"/>
</svg>
